<svg xmlns="http://www.w3.org/2000/svg" version="1.1" xmlns:xlink="http://www.w3.org/1999/xlink" xmlns:svgjs="http://svgjs.dev/svgjs" width="100%" height="100%" viewBox="0 0 1000 600"><rect width="1000" height="600" x="0" y="0" fill="#8bd8bd"/><g><circle r="166.66666666666666" cx="376.29833475748694" cy="374.97789661233253" fill="#243665" transform="matrix(0.6717215609173504,0,0,0.6717215609173504,-5.191430342150829,48.119249904427946)"/><path d="M247.24063266841017 443.9779202125033L247.24063266841017 446.4298432894264Q247.24063266841017 447.23753559711867 246.43294036071788 447.23753559711867L246.43294036071788 447.23753559711867L194.62524805302556 447.23753559711867Q193.81755574533327 447.23753559711867 193.81755574533327 446.4298432894264L193.81755574533327 446.4298432894264L193.81755574533327 443.9779202125033Q193.81755574533327 443.170227904811 195.11563266841017 443.170227904811L195.11563266841017 443.170227904811Q209.01947882225633 442.56445867404176 213.89447882225633 428.372150981734L213.89447882225633 428.372150981734L255.25986343764094 308.60292021250325Q255.37524805302556 308.4009971355802 255.37524805302556 308.11253559711867L255.37524805302556 308.11253559711867L254.25024805302556 304.7663817509648Q254.25024805302556 304.2471509817341 254.65409420687172 304.2471509817341L254.65409420687172 304.2471509817341L274.9329403607179 304.2471509817341Q275.13486343764094 304.33368944327253 275.4810172837948 304.4490740586571Q275.8560172837948 304.56445867404176 276.0579403607179 305.05484328942634L276.0579403607179 305.05484328942634L318.9521711299486 425.4298432894264Q320.36563266841017 428.170227904811 321.2310172837948 430.3913817509648Q322.09640189917945 432.64138175096485 323.22140189917945 434.45868944327253L323.22140189917945 434.45868944327253Q325.64447882225636 438.61253559711867 331.21178651456404 440.86253559711867L331.21178651456404 440.86253559711867Q335.88486343764094 443.170227904811 339.7502480530256 443.170227904811L339.7502480530256 443.170227904811Q340.55794036071785 443.170227904811 340.55794036071785 444.0933048278879L340.55794036071785 444.0933048278879L340.55794036071785 446.4298432894264Q340.55794036071785 447.23753559711867 339.7502480530256 447.23753559711867L339.7502480530256 447.23753559711867L277.6733249761025 447.23753559711867Q276.86563266841017 447.23753559711867 276.86563266841017 446.4298432894264L276.86563266841017 446.4298432894264L276.86563266841017 443.9779202125033Q276.86563266841017 443.170227904811 280.61563266841017 442.96830482788795Q284.36563266841017 442.76638175096485 286.7887095914871 442.56445867404176L286.7887095914871 442.56445867404176Q300.8944788222563 441.06445867404176 300.8944788222563 433.045227904811L300.8944788222563 433.045227904811Q300.8944788222563 432.43945867404176 300.69255574533327 431.6317663663495L300.69255574533327 431.6317663663495L285.3752480530256 388.420227904811Q285.2887095914871 388.2183048278879 284.9714018991794 387.497150981734L284.9714018991794 387.497150981734Q283.75986343764094 384.06445867404176 280.7021711299486 384.06445867404176L280.7021711299486 384.06445867404176L244.70217112994865 384.06445867404176Q241.6733249761025 384.06445867404176 239.94255574533327 387.41061252019557L239.94255574533327 387.41061252019557Q239.65409420687172 388.1029202125033 239.65409420687172 388.2183048278879L239.65409420687172 388.2183048278879L224.4233249761025 432.7279202125033L224.4233249761025 433.6509971355802Q224.4233249761025 436.2759971355802 227.1637095914871 438.41061252019557L227.1637095914871 438.41061252019557Q233.36563266841017 443.170227904811 243.80794036071788 443.170227904811L243.80794036071788 443.170227904811L246.43294036071788 443.170227904811Q247.24063266841017 443.170227904811 247.24063266841017 443.9779202125033L247.24063266841017 443.9779202125033ZM247.35601728379478 372.81445867404176L277.26947882225636 372.81445867404176Q279.08678651456404 372.81445867404176 279.08678651456404 371.28561252019557L279.08678651456404 371.28561252019557Q279.08678651456404 370.4779202125033 278.6829403607179 369.4683048278879L278.6829403607179 369.4683048278879L263.56755574533327 327.872150981734Q262.5579403607179 325.13176636634944 262.06755574533327 325.13176636634944L262.06755574533327 325.13176636634944Q261.5483249761025 325.13176636634944 260.4233249761025 327.98753559711867L260.4233249761025 327.98753559711867L246.2310172837948 369.4683048278879Q245.82717112994865 370.4779202125033 245.82717112994865 371.63176636634944Q245.82717112994865 372.81445867404176 247.35601728379478 372.81445867404176L247.35601728379478 372.81445867404176ZM411.83678651456404 447.23753559711867L351.2021711299486 447.23753559711867Q350.39447882225636 447.23753559711867 350.39447882225636 445.2183048278879L350.39447882225636 445.2183048278879L350.39447882225636 443.9779202125033Q350.39447882225636 443.170227904811 351.4040942068717 443.170227904811Q352.4137095914871 443.170227904811 354.4040942068717 442.56445867404176Q356.36563266841017 441.95868944327253 357.3752480530256 441.75676636634944L357.3752480530256 441.75676636634944Q367.7310172837948 439.420227904811 367.7310172837948 429.98753559711867L367.7310172837948 429.98753559711867L367.7310172837948 322.91061252019557Q367.7310172837948 313.56445867404176 364.26947882225636 310.9971509817341Q360.836786514564 308.4009971355802 351.8079403607179 308.4009971355802L351.8079403607179 308.4009971355802L347.25024805302553 308.4009971355802Q345.11563266841017 308.4009971355802 345.11563266841017 305.9779202125033L345.11563266841017 305.9779202125033Q345.11563266841017 304.56445867404176 346.44255574533327 304.2471509817341L346.44255574533327 304.2471509817341L347.13486343764094 304.2471509817341L404.01947882225636 302.7183048278879L414.2887095914871 302.7183048278879Q432.4329403607179 303.92984328942634 444.49063266841017 315.81445867404176Q456.5771711299486 327.670227904811 456.5771711299486 344.25676636634944Q456.5771711299486 360.8433048278879 444.69255574533327 374.31445867404176L444.69255574533327 374.31445867404176Q439.5290942068717 380.31445867404176 433.0387095914871 384.00676636634944Q426.54832497610244 387.6990740586571 420.259863437641 387.81445867404176L420.259863437641 387.81445867404176L389.8271711299486 386.6029202125033L389.01947882225636 386.6029202125033Q387.49063266841017 386.6029202125033 387.49063266841017 388.01638175096485L387.49063266841017 388.01638175096485L387.49063266841017 429.6990740586571Q387.49063266841017 435.26638175096485 390.54832497610244 437.920227904811Q393.5771711299486 440.545227904811 403.41370959148713 442.0740740586571L403.41370959148713 442.0740740586571Q404.74063266841017 442.2759971355802 407.68294036071785 442.73753559711867Q410.6252480530256 443.170227904811 411.63486343764094 443.170227904811Q412.64447882225636 443.170227904811 412.64447882225636 443.9779202125033L412.64447882225636 443.9779202125033L412.64447882225636 446.4298432894264Q412.64447882225636 447.23753559711867 411.83678651456404 447.23753559711867L411.83678651456404 447.23753559711867ZM395.71178651456404 307.85292021250325Q394.50024805302553 307.9106125201956 393.14447882225636 307.93945867404176Q391.75986343764094 307.9971509817341 389.6252480530256 308.05484328942634Q387.49063266841017 308.11253559711867 387.49063266841017 309.72792021250325L387.49063266841017 309.72792021250325L387.49063266841017 375.122150981734L387.69255574533327 378.1798432894264Q388.00986343764094 380.31445867404176 389.6252480530256 380.4009971355802L389.6252480530256 380.4009971355802L399.9810172837948 381.00676636634944Q416.3079403607179 381.00676636634944 426.2887095914871 370.0740740586571Q436.26947882225636 359.11253559711867 436.26947882225636 342.5259971355802Q436.26947882225636 325.93945867404176 426.6060172837948 316.8240740586571Q416.9137095914871 307.67984328942634 400.78870959148713 307.67984328942634L400.78870959148713 307.67984328942634Q399.37524805302553 307.67984328942634 398.1637095914871 307.73753559711867Q396.9233249761025 307.795227904811 395.71178651456404 307.85292021250325ZM543.7790942068717 306.17984328942634L549.461786514564 305.45868944327253Q550.4714018991795 305.45868944327253 550.4714018991795 307.67984328942634L550.4714018991795 307.67984328942634L553.0964018991795 329.28561252019557Q553.5290942068717 331.33368944327253 553.5290942068717 331.88176636634944Q553.5290942068717 332.4298432894264 551.9425557453333 332.4298432894264Q550.384863437641 332.4298432894264 549.9521711299486 332.0259971355802Q549.5483249761024 331.6221509817341 549.1444788222564 330.670227904811Q548.7406326684102 329.68945867404176 548.1925557453333 328.4779202125033Q547.6444788222564 327.26638175096485 547.0387095914871 326.0548432894264L547.0387095914871 326.0548432894264Q544.9040942068717 321.38176636634944 540.3175557453333 316.8240740586571L540.3175557453333 316.8240740586571Q529.1829403607179 306.06445867404176 515.1925557453333 306.06445867404176L515.1925557453333 306.06445867404176Q506.76947882225636 306.06445867404176 499.26947882225636 311.545227904811Q491.74063266841017 317.0259971355802 491.74063266841017 324.4683048278879Q491.74063266841017 331.93945867404176 494.5387095914872 337.420227904811Q497.3367865145641 342.8721509817341 501.89447882225636 347.545227904811Q506.4521711299486 352.2183048278879 512.336786514564 356.48753559711867Q518.2214018991795 360.7279202125033 524.3079403607179 365.08368944327253L524.3079403607179 365.08368944327253Q540.4329403607179 376.36253559711867 547.2406326684102 384.3529202125033L547.2406326684102 384.3529202125033Q557.8848634376409 396.7279202125033 558.7790942068717 412.1606125201956L558.7790942068717 412.1606125201956Q558.7790942068717 429.38176636634944 545.5675557453333 439.6798432894264Q532.3271711299486 449.9779202125033 514.7887095914871 449.9779202125033L514.7887095914871 449.9779202125033Q503.509863437641 449.9779202125033 496.87524805302553 447.6990740586571Q490.24063266841017 445.420227904811 487.7021711299486 444.4106125201956Q485.1637095914872 443.372150981734 484.0098634376409 443.372150981734Q482.8271711299486 443.372150981734 482.5387095914871 443.48753559711867L482.5387095914871 443.48753559711867L477.54832497610255 444.497150981734Q476.25024805302553 444.497150981734 475.9329403607179 442.36253559711867L475.9329403607179 442.36253559711867Q472.99063266841017 417.20868944327253 472.99063266841017 415.6509971355802Q472.99063266841017 414.06445867404176 473.25024805302553 413.51638175096485Q473.5098634376409 412.9683048278879 474.6060172837948 412.9683048278879L474.6060172837948 412.9683048278879Q477.461786514564 412.9683048278879 479.79832497610244 421.0740740586571L479.79832497610244 421.0740740586571Q490.44255574533327 443.89138175096485 515.1925557453333 443.89138175096485L515.1925557453333 443.89138175096485Q526.5290942068717 443.89138175096485 534.6060172837948 436.997150981734Q542.6540942068717 430.1029202125033 542.6540942068717 419.0548432894264L542.6540942068717 419.0548432894264Q542.6540942068717 401.4009971355802 521.5675557453333 386.1990740586571L521.5675557453333 386.1990740586571Q515.5964018991795 381.9298432894264 504.31755574533327 374.31445867404176Q493.06755574533327 366.7279202125033 486.37524805302553 359.11253559711867L486.37524805302553 359.11253559711867Q475.9329403607179 347.3433048278879 475.9329403607179 332.89138175096485Q475.9329403607179 318.43945867404176 487.44255574533327 309.20868944327253Q498.9521711299486 299.9779202125033 513.8656326684102 299.9779202125033L513.8656326684102 299.9779202125033Q521.5675557453333 299.9779202125033 530.8560172837948 302.63176636634944Q540.1156326684102 305.25676636634944 543.7790942068717 306.17984328942634L543.7790942068717 306.17984328942634Z " fill="#8bd8bd" transform="matrix(0.6717215609173504,0,0,0.6717215609173504,-5.191430342150829,48.119249904427946)"/><path d="M669.5429308072299 379.08389685002834L669.5429308072299 387.19539867010457Q669.5429308072299 389.1542133511137 668.0863763008385 389.1542133511137Q666.6298217944471 389.1542133511137 665.8513185237896 387.01960760898834L665.8513185237896 387.01960760898834Q663.7167127816645 381.1933895834228 659.5228403236064 376.6981610205942Q655.3289678655484 372.2029324577656 649.1511677177505 372.2029324577656L649.1511677177505 372.2029324577656Q641.0396658976742 372.2029324577656 638.2018959110842 380.31443427784177L638.2018959110842 380.31443427784177Q637.3229406055032 383.0517522295084 637.3229406055032 385.96486124229114Q637.3229406055032 388.87797025507393 641.0396658976742 392.44401749485974Q644.7312781811145 396.03517774337644 653.219475132154 400.982440463361Q661.6825590744626 405.92970318334557 665.5750754277499 409.37018537947694L665.5750754277499 409.37018537947694Q674.4148545010219 417.23055711224424 674.4148545010219 427.5520037006384Q674.4148545010219 437.8734502890326 666.8056128555634 443.92568539317614Q659.2214842188357 449.97792049731964 649.1511677177505 449.97792049731964L649.1511677177505 449.97792049731964Q643.7769838493409 449.97792049731964 639.4073203301666 448.52136599092825Q635.0376568109925 447.06481148453685 634.3596055752586 447.06481148453685Q633.7066673482556 447.06481148453685 632.2501128418642 448.52136599092825Q630.7935583354728 449.97792049731964 629.9146030298917 449.97792049731964L629.9146030298917 449.97792049731964L628.4078225060387 449.97792049731964Q627.88044932269 449.97792049731964 627.0768330433016 440.434977179583Q626.2983297726441 430.91714687057714 626.2983297726441 429.13412325068424Q626.2983297726441 427.37621263952224 626.5996858774148 427.200421578406Q626.9010419821855 427.02463051728984 627.6042062266503 427.02463051728984Q628.3073704711151 427.02463051728984 628.8096306457328 427.45155166571493Q629.2867778116197 427.9035858228708 629.638359933852 428.5565240498739Q629.9899420560844 429.23457528560783 630.2159591346624 429.93773953007263Q630.4419762132404 430.64090377453743 631.3209315188215 432.5746054468156L631.3209315188215 432.5746054468156Q637.3229406055032 445.38223989956754 649.8543319622153 445.38223989956754L649.8543319622153 445.38223989956754Q655.4294199004719 445.38223989956754 658.7694500616799 441.28881947643305Q662.1345932316185 437.1702860445678 662.1345932316185 432.1476842983906Q662.1345932316185 427.0999695434825 659.4726143061446 423.6594873473511Q656.8357483894016 420.21900515121973 652.8930060186525 417.40634817336047Q648.9753766566342 414.56857818677037 644.3796960588821 411.9317122700273L644.3796960588821 411.9317122700273Q626.549459859953 401.5098136467096 626.549459859953 388.87797025507393L626.549459859953 388.87797025507393Q626.549459859953 379.4354789722608 634.6860746887601 372.5796275887289Q642.7975765088363 365.7488892139279 651.3611124860684 365.7488892139279Q659.9246484633006 365.7488892139279 664.018068886435 367.60725186001343Q668.1366023183002 369.46561450609903 668.8397665627651 370.7463779513742Q669.5429308072299 372.02714139664937 669.5429308072299 379.08389685002834L669.5429308072299 379.08389685002834ZM687.6494101021988 407.91363087308554Q687.6494101021988 390.5605418400433 699.954784380333 378.05426349206203Q712.285271667198 365.5730981528117 729.487682647855 365.5730981528117Q746.7152066372427 365.5730981528117 759.422389055071 377.70268136982963Q772.1295714728993 389.8573775955785 772.1295714728993 407.68761379450757Q772.1295714728993 425.51784999343664 760.0753272820742 437.7478852453782Q748.0461960999797 449.97792049731964 729.8392647700874 449.97792049731964Q711.6574464489258 449.97792049731964 699.6534282755623 437.62232020172377Q687.6494101021988 425.2667199061278 687.6494101021988 407.91363087308554ZM709.6232927417241 430.64090377453743L709.6232927417241 430.64090377453743Q718.2872807538797 445.2064488384513 733.204407940026 445.2064488384513L733.204407940026 445.2064488384513Q744.7563919562336 445.2064488384513 750.9090790953006 435.93974861675434Q757.036653225637 426.67304839505744 757.036653225637 413.1622496978407Q757.036653225637 399.65145100062404 748.422891230943 385.4374880589425Q739.8342422449799 371.22352511726103 725.2686971810662 371.22352511726103L725.2686971810662 371.22352511726103Q714.5705554617086 371.22352511726103 708.4429813313724 380.43999932149626Q702.2902941923053 389.68158653446227 702.2902941923053 403.845323458682Q702.2902941923053 418.00906038290174 709.6232927417241 430.64090377453743ZM833.2295217151451 446.1858561789559L833.2295217151451 446.1858561789559Q833.2295217151451 447.5921846678855 831.6474021650994 447.5921846678855L831.6474021650994 447.5921846678855L783.1792953144892 447.5921846678855Q782.3003400089082 447.4163936067693 782.3003400089082 446.36164724007205L782.3003400089082 446.36164724007205Q782.3003400089082 444.7544146812954 786.4439864495045 444.22704149794674L786.4439864495045 444.22704149794674Q795.9869297672411 442.82071300901714 795.9869297672411 434.1818380055923L795.9869297672411 434.1818380055923L795.9869297672411 380.66601640007417Q795.9869297672411 379.68660905956966 794.9070703918131 379.68660905956966L794.9070703918131 379.68660905956966L785.2887880478837 379.68660905956966Q784.2340416811866 379.68660905956966 783.254634340682 379.0336708325666Q782.3003400089082 378.38073260556354 782.3003400089082 377.2757602214046Q782.3003400089082 376.1707878372456 783.3550863756055 375.54296261897343L783.3550863756055 375.54296261897343Q784.8618668994587 374.66400731339246 790.4118418289844 373.15722678953927Q795.9869297672411 371.67555927441697 795.9869297672411 368.2099640695547L795.9869297672411 368.2099640695547L795.9869297672411 365.2968550567719Q795.9869297672411 333.52889901220107 809.7488585517666 316.4018270577368L809.7488585517666 316.4018270577368Q817.4334392234178 306.7835447138075 833.1541826889526 301.56003889778316L833.1541826889526 301.56003889778316Q837.90054133909 299.9779193477374 842.5966739717657 299.9779193477374Q847.2676935957105 299.9779193477374 853.5459457784319 302.4138811946333Q859.7990849524225 304.82473003279836 859.7990849524225 308.2652122289297L859.7990849524225 308.2652122289297Q859.7990849524225 308.9683764733945 859.5981808825755 309.52086266547406Q859.3721638039975 310.0482358488226 859.0959207079578 310.8267391194801L859.0959207079578 310.8267391194801L855.4796474507101 318.6117718260548Q854.7764832062454 320.01810031498445 853.7970758657408 320.01810031498445L853.7970758657408 320.01810031498445Q853.5459457784319 320.01810031498445 850.005011547377 317.2305563458561Q846.464077316322 314.4430123767277 842.546447954304 312.1075025647553Q838.6288185922857 309.7719927527829 833.3299737500687 309.7719927527829L833.3299737500687 309.7719927527829Q822.9834141529437 309.7719927527829 817.6845693107267 315.0708375949999Q812.3857244685097 320.3696824372168 811.0798480145037 327.0246297509016Q809.7488585517666 333.7046900733173 809.7488585517666 341.74085286720083L809.7488585517666 341.74085286720083L809.7488585517666 367.43146079889726Q809.7488585517666 368.13462504336206 810.6278138573476 368.13462504336206L810.6278138573476 368.13462504336206L827.8553378467356 368.13462504336206Q830.3164127023623 368.13462504336206 831.0698029642889 368.6117722092489Q831.8231932262155 369.11403238386663 832.5263574706804 371.8011243180714Q833.2295217151451 374.48821625227623 833.2295217151451 376.74838703805597Q833.2295217151451 378.98344481510486 832.8026005667201 379.3350269373372Q832.3505664095641 379.68660905956966 830.9442379206345 379.68660905956966L830.9442379206345 379.68660905956966L810.9040569533873 379.68660905956966Q809.7488585517666 379.68660905956966 809.7488585517666 380.59067737388153L809.7488585517666 380.59067737388153L809.7488585517666 432.39881438569944Q809.7488585517666 445.0306577773351 831.6474021650994 445.0306577773351L831.6474021650994 445.0306577773351Q833.2295217151451 445.2064488384513 833.2295217151451 446.1858561789559ZM840.4620682296403 407.91363087308554Q840.4620682296403 390.5605418400433 852.7925555165053 378.05426349206203Q865.0979297946395 365.5730981528117 882.3254537840274 365.5730981528117Q899.5278647646843 365.5730981528117 912.2601601912435 377.70268136982963Q924.9673426090718 389.8573775955785 924.9673426090718 407.68761379450757Q924.9673426090718 425.51784999343664 912.9130984182465 437.7478852453782Q900.8588542274214 449.97792049731964 882.6770359062597 449.97792049731964Q864.4952175850982 449.97792049731964 852.4911994117348 437.62232020172377Q840.4620682296403 425.2667199061278 840.4620682296403 407.91363087308554ZM862.4610638778964 430.64090377453743L862.4610638778964 430.64090377453743Q871.0999388813212 445.2064488384513 886.0170660674677 445.2064488384513L886.0170660674677 445.2064488384513Q897.5941630924061 445.2064488384513 903.7217372227423 435.93974861675434Q909.8744243618092 426.67304839505744 909.8744243618092 413.1622496978407Q909.8744243618092 399.65145100062404 901.2606623671155 385.4374880589425Q892.6469003724216 371.22352511726103 878.0813553085076 371.22352511726103L878.0813553085076 371.22352511726103Q867.408326597881 371.22352511726103 861.255639458814 380.43999932149626Q855.1280653284776 389.68158653446227 855.1280653284776 403.845323458682Q855.1280653284776 418.00906038290174 862.4610638778964 430.64090377453743ZM980.5926569479844 379.08389685002834L980.5926569479844 387.19539867010457Q980.5926569479844 389.1542133511137 979.1361024415929 389.1542133511137Q977.6795479352016 389.1542133511137 976.8759316558134 387.01960760898834L976.8759316558134 387.01960760898834Q974.7664389224188 381.1933895834228 970.5725664643609 376.6981610205942Q966.3786940063029 372.2029324577656 960.2008938585049 372.2029324577656L960.2008938585049 372.2029324577656Q952.0642790296978 372.2029324577656 949.2516220518386 380.31443427784177L949.2516220518386 380.31443427784177Q948.3726667462576 383.0517522295084 948.3726667462576 385.96486124229114Q948.3726667462576 388.87797025507393 952.0642790296978 392.44401749485974Q955.7810043218691 396.03517774337644 964.2440882641775 400.982440463361Q972.7322852152171 405.92970318334557 976.6248015685045 409.37018537947694L976.6248015685045 409.37018537947694Q985.4394676330454 417.23055711224424 985.4394676330454 427.5520037006384Q985.4394676330454 437.8734502890326 977.8553389963178 443.92568539317614Q970.2460973508593 449.97792049731964 960.2008938585049 449.97792049731964L960.2008938585049 449.97792049731964Q954.8015969813645 449.97792049731964 950.4319334621904 448.52136599092825Q946.0622699430161 447.06481148453685 945.4093317160131 447.06481148453685Q944.7312804802792 447.06481148453685 943.2747259738877 448.52136599092825Q941.8181714674964 449.97792049731964 940.9392161619154 449.97792049731964L940.9392161619154 449.97792049731964L939.4324356380622 449.97792049731964Q938.9050624547136 449.97792049731964 938.1265591840562 440.434977179583Q937.3229429046677 430.91714687057714 937.3229429046677 429.13412325068424Q937.3229429046677 427.37621263952224 937.6242990094385 427.200421578406Q937.9507681229398 427.02463051728984 938.6539323674048 427.02463051728984Q939.3570966118695 427.02463051728984 939.8342437777563 427.45155166571493Q940.3365039523741 427.9035858228708 940.6880860746065 428.5565240498739Q941.039668196839 429.23457528560783 941.2656852754168 429.93773953007263Q941.466589345264 430.64090377453743 942.345544650845 432.5746054468156L942.345544650845 432.5746054468156Q948.3726667462576 445.38223989956754 960.9040581029698 445.38223989956754L960.9040581029698 445.38223989956754Q966.4540330324957 445.38223989956754 969.8191762024343 441.28881947643305Q973.159206363642 437.1702860445678 973.159206363642 432.1476842983906Q973.159206363642 427.0999695434825 970.5223404468992 423.6594873473511Q967.8603615214253 420.21900515121973 963.942732159407 417.40634817336047Q960.0251027973887 414.56857818677037 955.4294221996366 411.9317122700273L955.4294221996366 411.9317122700273Q937.5991860007076 401.5098136467096 937.5991860007076 388.87797025507393L937.5991860007076 388.87797025507393Q937.5991860007076 379.4354789722608 945.7106878207836 372.5796275887289Q953.8221896408598 365.7488892139279 962.410838626823 365.7488892139279Q970.974374604055 365.7488892139279 975.0677950271894 367.60725186001343Q979.161215450324 369.46561450609903 979.8894927035195 370.7463779513742Q980.5926569479844 372.02714139664937 980.5926569479844 379.08389685002834L980.5926569479844 379.08389685002834ZM1046.2631747792516 379.68660905956966L1019.6936115419741 379.68660905956966Q1019.1662383586253 379.68660905956966 1019.1662383586253 380.490225338958L1019.1662383586253 380.490225338958L1019.1662383586253 429.23457528560783Q1019.1662383586253 434.53342012782474 1021.5017481705978 437.5218681668002Q1023.8372579825701 440.5354292145065 1027.4786442485488 440.5354292145065Q1031.0949175057963 440.5354292145065 1033.7820094400013 439.330004795424Q1036.4691013742058 438.14969338507234 1038.453029063946 436.74336489614274Q1040.436956753686 435.3119233984822 1042.0441893124625 434.1316119881306Q1043.6263088625083 432.926187569048 1044.8568462903218 432.926187569048Q1046.0873837181352 432.926187569048 1046.0873837181352 433.5540127873202L1046.0873837181352 433.5540127873202Q1046.0873837181352 435.66350552071464 1045.66046256971 436.2913307389868L1045.66046256971 436.2913307389868Q1035.0627728852764 449.97792049731964 1025.218473462769 449.97792049731964Q1015.3741740402614 449.97792049731964 1010.3766853028152 443.7498943320599Q1005.4043095740998 437.5218681668002 1005.4043095740998 428.8829931633754L1005.4043095740998 428.8829931633754L1005.4043095740998 379.68660905956966L998.7744752691459 379.68660905956966Q996.3134004135189 379.68660905956966 996.1627223611337 378.10448950952383Q996.0371573174792 376.522369959478 996.6649825357516 376.07033580232206L996.6649825357516 376.07033580232206Q1001.3360021596962 373.08188776334663 1009.5479560146961 365.2968550567719L1009.5479560146961 365.2968550567719Q1010.4269113202771 364.34256072499824 1011.9336918441303 362.38374604398916Q1013.4404723679833 360.45004437171093 1016.3033553633044 357.0849012017722Q1019.1662383586253 353.74487104056436 1020.6730188824785 353.74487104056436Q1022.1797994063317 353.74487104056436 1022.1797994063317 354.9754084683778L1022.1797994063317 354.9754084683778Q1022.1797994063317 355.15119952949397 1019.1662383586253 366.55250549331623L1019.1662383586253 366.55250549331623Q1019.1662383586253 368.13462504336206 1020.5725668475549 368.2099640695547L1020.5725668475549 368.2099640695547L1043.0989356791597 368.2099640695547Q1046.966339023716 368.2099640695547 1046.966339023716 379.15923587622103L1046.966339023716 379.15923587622103Q1046.966339023716 379.68660905956966 1046.2631747792516 379.68660905956966L1046.2631747792516 379.68660905956966ZM1120.7985846925212 401.05777948955364L1069.5680468815135 401.05777948955364Q1068.0863793663912 401.05777948955364 1068.0863793663912 407.5118227333914L1068.0863793663912 407.5118227333914Q1068.0863793663912 421.19841249172424 1076.1978811864674 430.4651127134212Q1084.3344960152745 439.73181293511817 1096.3636271973692 439.73181293511817Q1108.4178713881943 439.73181293511817 1119.542934255977 429.30991431180047L1119.542934255977 429.30991431180047Q1119.7187253170932 429.13412325068424 1119.994968413133 429.13412325068424L1119.994968413133 429.13412325068424L1120.4218895615577 429.13412325068424Q1120.9743757536376 429.13412325068424 1121.4515229195245 429.9879655475344Q1121.9286700854109 430.8166948356536 1122.380704242567 431.09293793169337L1122.380704242567 431.09293793169337Q1112.1345966803656 443.52387725348194 1098.2722158609163 448.29534891235033L1098.2722158609163 448.29534891235033Q1093.5007442020478 449.97792049731964 1087.4987351153663 449.97792049731964Q1081.4967260286844 449.97792049731964 1075.3189258808866 446.6630033448427Q1069.1411257330888 443.34808619236577 1064.7212361964525 437.9739023239561L1064.7212361964525 437.9739023239561Q1055.354083939832 426.7483874212501 1055.354083939832 410.02312360647994Q1055.354083939832 393.29785979170987 1065.575078493303 379.51081799845343Q1075.7709600380426 365.7488892139279 1093.6011962369716 365.7488892139279L1093.6011962369716 365.7488892139279Q1106.3837176809925 365.7488892139279 1114.5203325097996 377.175308186481Q1122.6318343298758 388.62684016776507 1122.6318343298758 397.26571517118987L1122.6318343298758 397.26571517118987Q1122.6318343298758 401.05777948955364 1120.7985846925212 401.05777948955364L1120.7985846925212 401.05777948955364ZM1070.5474542220181 391.53994918054786L1070.5474542220181 392.59469554724507Q1070.5474542220181 394.2772671322144 1072.1295737720638 394.2772671322144L1072.1295737720638 394.2772671322144L1105.4294233492187 394.2772671322144Q1107.7147071437294 394.2772671322144 1107.7147071437294 391.53994918054786L1107.7147071437294 391.53994918054786Q1107.7147071437294 385.1612449629028 1102.0140541618184 378.50629764921797Q1096.3385141886383 371.8513503355332 1089.532888822568 371.8513503355332L1089.532888822568 371.8513503355332Q1082.9030545176142 371.8513503355332 1077.4786446317426 377.85335942221496Q1072.0542347458713 383.85536850889673 1070.5474542220181 391.53994918054786L1070.5474542220181 391.53994918054786ZM1206.7855265870749 376.34657889836177L1206.7855265870749 376.34657889836177Q1206.7855265870749 382.52437904615977 1199.6283190987724 382.52437904615977L1199.6283190987724 382.52437904615977Q1196.012045841525 382.52437904615977 1193.5007449684363 380.43999932149626Q1190.9643310866168 378.38073260556354 1189.608228615149 376.92417809917214Q1188.22701313495 375.4676235927808 1186.7453456198277 374.23708616496737L1186.7453456198277 374.23708616496737Q1180.3917544109136 369.0135803489431 1171.250619232871 373.08188776334663Q1162.1094840548285 377.15019517775016 1157.1622213348442 390.38475077892707L1157.1622213348442 390.38475077892707Q1154.4249033831775 397.7177493283458 1154.4249033831775 404.95029584284094L1154.4249033831775 404.95029584284094Q1154.4249033831775 420.49524824725944 1161.4816588365566 430.3395476697668Q1168.5384142899356 440.1838470922741 1183.1290723625802 440.1838470922741L1183.1290723625802 440.1838470922741Q1193.9778921343232 440.1838470922741 1202.6418801464788 430.4651127134212L1202.6418801464788 430.4651127134212Q1205.2787460632217 427.5520037006384 1205.8061192465702 427.5520037006384Q1206.3334924299188 427.5520037006384 1206.9613176481912 428.07937688398704Q1207.5640298577323 428.60675006733567 1207.5640298577323 429.636383425302Q1207.5640298577323 430.64090377453743 1207.0366566743837 431.168276957886L1207.0366566743837 431.168276957886Q1193.525857977167 449.97792049731964 1173.0587558614948 449.97792049731964L1173.0587558614948 449.97792049731964Q1158.2169677015413 449.97792049731964 1148.7242504012665 438.9281966557298Q1139.2315331009913 427.9035858228708 1139.2315331009913 413.68962288118934L1139.2315331009913 413.68962288118934Q1139.3319851359151 387.37118973122074 1151.963828527551 375.8192057150132L1151.963828527551 375.8192057150132Q1163.0888913953331 365.64843717900436 1183.6564455459288 365.64843717900436L1183.6564455459288 365.64843717900436Q1196.3636279637572 365.64843717900436 1200.5072744043532 368.2099640695547Q1204.6509208449497 370.7714909601051 1206.3334924299188 374.66400731339246L1206.3334924299188 374.66400731339246Q1206.7855265870749 375.54296261897343 1206.7855265870749 376.34657889836177ZM1243.8523274738627 304.47314791056596L1243.8523274738627 379.25968791114457Q1243.8523274738627 381.369180644539 1244.480152692135 381.369180644539Q1245.107977910407 381.369180644539 1245.359107997716 381.06782453976837Q1245.6353510937556 380.76646843499776 1249.0758332898872 376.9492911079031L1249.0758332898872 376.9492911079031Q1259.0456977560489 365.84934124885143 1269.2918053182502 365.84934124885143L1269.2918053182502 365.84934124885143Q1282.7021519805435 365.84934124885143 1288.9804041632651 371.8513503355332L1288.9804041632651 371.8513503355332Q1296.6649848349161 379.4354789722608 1296.6649848349161 397.3661672061134L1296.6649848349161 397.3661672061134L1296.6649848349161 434.1818380055923Q1296.6649848349161 442.82071300901714 1306.1828151439217 444.22704149794674L1306.1828151439217 444.22704149794674Q1310.351574593249 444.7544146812954 1310.351574593249 446.08540414403234Q1310.351574593249 447.4163936067693 1309.447506278937 447.5921846678855L1309.447506278937 447.5921846678855L1270.0703085889077 447.5921846678855Q1269.1913532833269 447.4163936067693 1269.1913532833269 446.36164724007205L1269.1913532833269 446.36164724007205Q1269.1913532833269 444.7544146812954 1273.3601127326538 444.22704149794674L1273.3601127326538 444.22704149794674Q1282.8779430416598 442.82071300901714 1282.8779430416598 434.1818380055923L1282.8779430416598 434.1818380055923L1282.8779430416598 398.24512251169443Q1282.8779430416598 385.26169699782633 1281.0195803955744 381.369180644539L1281.0195803955744 381.369180644539Q1277.5037591732503 373.6092609466952 1266.2782442705438 373.6092609466952L1266.2782442705438 373.6092609466952Q1259.397279878281 373.6092609466952 1251.6373601804376 379.48570498972254Q1243.8523274738627 385.337036024019 1243.8523274738627 392.41890448612884L1243.8523274738627 392.41890448612884L1243.8523274738627 434.1818380055923Q1243.8523274738627 442.82071300901714 1253.3952707915996 444.22704149794674L1253.3952707915996 444.22704149794674Q1257.5389172321957 444.7544146812954 1257.5389172321957 446.08540414403234Q1257.5389172321957 447.4163936067693 1256.6599619266149 447.5921846678855L1256.6599619266149 447.5921846678855L1217.282764236585 447.5921846678855Q1216.4038089310043 447.4163936067693 1216.4038089310043 446.36164724007205L1216.4038089310043 446.36164724007205Q1216.4038089310043 444.7544146812954 1220.5474553716003 444.22704149794674L1220.5474553716003 444.22704149794674Q1230.0903986893372 442.82071300901714 1230.0903986893372 434.1818380055923L1230.0903986893372 434.1818380055923L1230.0903986893372 324.08640772938793Q1230.0903986893372 320.3696824372168 1226.0220912749337 318.9633539482872L1226.0220912749337 318.9633539482872Q1224.2641806637716 318.335528730015 1222.2300269565699 317.9337205903209Q1220.195873249368 317.5319124506267 1219.0155618390163 317.1803303283943Q1217.810137419934 316.8287482061619 1217.508781315163 316.5273921013913Q1217.2074252103926 316.2260359966206 1217.2074252103926 315.1964026386543Q1217.2074252103926 314.19188228941886 1218.5133016643986 313.48871804495406L1218.5133016643986 313.48871804495406L1241.0396704960035 302.8910283605201Q1242.0944168627007 302.3636551771715 1242.3706599587408 302.3636551771715L1242.3706599587408 302.3636551771715Q1243.8523274738627 302.3636551771715 1243.8523274738627 304.47314791056596L1243.8523274738627 304.47314791056596Z " fill="#243665" transform="matrix(0.6717215609173504,0,0,0.6717215609173504,-5.191430342150829,48.119249904427946)"/></g></svg>